<svg id="visual" viewBox="0 0 900 500" width="900" height="500" xmlns="http://www.w3.org/2000/svg" xmlns:xlink="http://www.w3.org/1999/xlink" version="1.1"><g fill="#005dff"><circle r="12" cx="779" cy="204"></circle><circle r="1" cx="579" cy="446"></circle><circle r="0" cx="156" cy="366"></circle><circle r="1" cx="483" cy="8"></circle><circle r="2" cx="884" cy="43"></circle><circle r="10" cx="250" cy="22"></circle><circle r="6" cx="639" cy="255"></circle><circle r="0" cx="708" cy="438"></circle><circle r="1" cx="471" cy="429"></circle><circle r="6" cx="257" cy="188"></circle><circle r="4" cx="170" cy="462"></circle><circle r="3" cx="609" cy="101"></circle><circle r="1" cx="87" cy="383"></circle><circle r="8" cx="547" cy="312"></circle><circle r="9" cx="841" cy="43"></circle><circle r="8" cx="263" cy="359"></circle><circle r="4" cx="569" cy="293"></circle><circle r="3" cx="704" cy="54"></circle><circle r="9" cx="57" cy="294"></circle><circle r="7" cx="698" cy="482"></circle><circle r="10" cx="800" cy="386"></circle><circle r="1" cx="434" cy="418"></circle><circle r="10" cx="866" cy="457"></circle><circle r="6" cx="493" cy="496"></circle><circle r="0" cx="839" cy="165"></circle><circle r="6" cx="775" cy="397"></circle><circle r="4" cx="335" cy="360"></circle><circle r="10" cx="139" cy="132"></circle><circle r="2" cx="284" cy="430"></circle><circle r="5" cx="669" cy="341"></circle><circle r="9" cx="777" cy="459"></circle><circle r="7" cx="326" cy="327"></circle><circle r="10" cx="773" cy="373"></circle><circle r="5" cx="83" cy="149"></circle><circle r="6" cx="32" cy="422"></circle><circle r="8" cx="733" cy="249"></circle><circle r="5" cx="621" cy="421"></circle><circle r="3" cx="191" cy="291"></circle><circle r="1" cx="645" cy="338"></circle><circle r="7" cx="774" cy="30"></circle><circle r="7" cx="834" cy="498"></circle><circle r="1" cx="436" cy="371"></circle><circle r="0" cx="263" cy="282"></circle><circle r="1" cx="269" cy="474"></circle><circle r="2" cx="501" cy="345"></circle><circle r="7" cx="832" cy="327"></circle><circle r="4" cx="492" cy="472"></circle><circle r="10" cx="435" cy="277"></circle><circle r="1" cx="795" cy="429"></circle><circle r="0" cx="503" cy="425"></circle><circle r="5" cx="545" cy="409"></circle><circle r="8" cx="316" cy="128"></circle><circle r="9" cx="744" cy="454"></circle><circle r="4" cx="811" cy="135"></circle><circle r="9" cx="548" cy="247"></circle><circle r="1" cx="316" cy="56"></circle><circle r="10" cx="203" cy="141"></circle><circle r="0" cx="736" cy="273"></circle><circle r="2" cx="376" cy="354"></circle><circle r="5" cx="587" cy="234"></circle><circle r="6" cx="830" cy="266"></circle><circle r="4" cx="97" cy="255"></circle><circle r="8" cx="882" cy="351"></circle><circle r="1" cx="65" cy="239"></circle><circle r="0" cx="751" cy="361"></circle><circle r="2" cx="527" cy="453"></circle><circle r="7" cx="890" cy="233"></circle><circle r="9" cx="114" cy="314"></circle><circle r="8" cx="370" cy="443"></circle><circle r="5" cx="751" cy="293"></circle><circle r="8" cx="715" cy="13"></circle><circle r="3" cx="546" cy="470"></circle><circle r="2" cx="586" cy="120"></circle><circle r="3" cx="687" cy="26"></circle><circle r="8" cx="669" cy="493"></circle><circle r="4" cx="340" cy="462"></circle><circle r="2" cx="321" cy="399"></circle><circle r="2" cx="871" cy="323"></circle><circle r="2" cx="720" cy="399"></circle><circle r="9" cx="89" cy="322"></circle><circle r="2" cx="23" cy="14"></circle><circle r="9" cx="155" cy="94"></circle><circle r="9" cx="499" cy="192"></circle><circle r="1" cx="70" cy="183"></circle><circle r="9" cx="227" cy="431"></circle><circle r="3" cx="309" cy="104"></circle><circle r="10" cx="205" cy="198"></circle><circle r="3" cx="137" cy="325"></circle><circle r="9" cx="705" cy="371"></circle><circle r="7" cx="739" cy="485"></circle><circle r="10" cx="604" cy="499"></circle><circle r="1" cx="635" cy="107"></circle><circle r="2" cx="626" cy="13"></circle><circle r="7" cx="64" cy="442"></circle><circle r="10" cx="863" cy="148"></circle><circle r="1" cx="463" cy="213"></circle><circle r="2" cx="600" cy="211"></circle><circle r="2" cx="626" cy="394"></circle><circle r="8" cx="145" cy="461"></circle><circle r="6" cx="181" cy="490"></circle><circle r="6" cx="473" cy="142"></circle><circle r="4" cx="543" cy="341"></circle><circle r="9" cx="749" cy="23"></circle><circle r="3" cx="349" cy="159"></circle><circle r="3" cx="16" cy="177"></circle><circle r="2" cx="92" cy="113"></circle><circle r="0" cx="380" cy="409"></circle><circle r="6" cx="365" cy="468"></circle><circle r="8" cx="835" cy="290"></circle><circle r="2" cx="305" cy="193"></circle><circle r="7" cx="404" cy="82"></circle><circle r="9" cx="511" cy="95"></circle><circle r="4" cx="423" cy="255"></circle><circle r="3" cx="316" cy="484"></circle><circle r="9" cx="467" cy="481"></circle><circle r="9" cx="578" cy="338"></circle><circle r="9" cx="232" cy="337"></circle><circle r="0" cx="822" cy="353"></circle><circle r="4" cx="855" cy="107"></circle><circle r="7" cx="558" cy="95"></circle><circle r="9" cx="18" cy="82"></circle><circle r="3" cx="864" cy="492"></circle><circle r="0" cx="579" cy="34"></circle><circle r="1" cx="659" cy="460"></circle><circle r="5" cx="341" cy="128"></circle><circle r="5" cx="332" cy="214"></circle><circle r="2" cx="457" cy="336"></circle><circle r="7" cx="202" cy="383"></circle><circle r="2" cx="873" cy="288"></circle><circle r="3" cx="541" cy="130"></circle><circle r="2" cx="517" cy="212"></circle><circle r="7" cx="659" cy="119"></circle><circle r="0" cx="107" cy="446"></circle><circle r="2" cx="361" cy="220"></circle><circle r="5" cx="760" cy="54"></circle><circle r="10" cx="798" cy="478"></circle><circle r="0" cx="112" cy="24"></circle><circle r="5" cx="484" cy="249"></circle><circle r="9" cx="221" cy="58"></circle><circle r="1" cx="479" cy="55"></circle><circle r="9" cx="384" cy="113"></circle><circle r="0" cx="373" cy="196"></circle><circle r="7" cx="762" cy="235"></circle><circle r="4" cx="784" cy="161"></circle><circle r="2" cx="890" cy="400"></circle><circle r="10" cx="698" cy="309"></circle><circle r="4" cx="402" cy="273"></circle><circle r="7" cx="613" cy="156"></circle><circle r="1" cx="655" cy="156"></circle><circle r="8" cx="20" cy="45"></circle></g></svg>