<svg xmlns="http://www.w3.org/2000/svg" viewBox="0 0 48 48"><defs><style>.cls-1{fill:#7c7d7d;}.cls-2{fill:#919191;}.cls-3{fill:#dad7e5;}.cls-4{fill:#edebf2;}.cls-5{fill:#374f68;}.cls-6{fill:#425b72;}.cls-7{fill:#9fdbf3;}.cls-8{fill:#b2e5fb;}.cls-9{fill:#fc6;}.cls-10{fill:#ffde76;}.cls-11{fill:#f8834b;}</style></defs><title>Money Transport</title><g id="Money_Transport" data-name="Money Transport"><path class="cls-1" d="M31,32v4H2a1,1,0,0,1-1-1V32Z"/><path class="cls-2" d="M31,32v2H6a2,2,0,0,1-2-2Z"/><path class="cls-3" d="M31,16V32H1V17a1,1,0,0,1,1-1Z"/><path class="cls-4" d="M31,16V29H7a3,3,0,0,1-3-3V16Z"/><path class="cls-5" d="M15,36a4,4,0,1,1-5.64-3.64A4,4,0,0,1,15,36Z"/><path class="cls-6" d="M14.64,37.64a4,4,0,0,1-5.28-5.28A4,4,0,0,1,14.64,37.64Z"/><path class="cls-3" d="M47,30.62V35a1,1,0,0,1-1,1H31V20h7.61a2,2,0,0,1,1.88,1.3L43,28C46.58,29.78,47,29.79,47,30.62Z"/><path class="cls-4" d="M47,30.62V34H37a3,3,0,0,1-3-3V20h4.61a2,2,0,0,1,1.88,1.3L43,28C46.55,29.77,47,29.79,47,30.62Z"/><path class="cls-4" d="M11,37a1,1,0,1,1,1-1A1,1,0,0,1,11,37Z"/><path class="cls-3" d="M39,20H31V16h4A4,4,0,0,1,39,20Z"/><path class="cls-4" d="M38.46,18H35a2,2,0,0,1-2-2C34.91,16,37.13,15.69,38.46,18Z"/><path class="cls-7" d="M43,28H37a1,1,0,0,1-1-1V25a1,1,0,0,1,1-1h4.5Z"/><path class="cls-8" d="M42.25,26H39a1,1,0,0,1-1-1V24h3.5Z"/><circle class="cls-5" cx="39" cy="36" r="4"/><path class="cls-6" d="M42.64,37.64a4,4,0,0,1-5.28-5.28A4,4,0,0,1,42.64,37.64Z"/><path class="cls-4" d="M38.26,35.29a1,1,0,0,1,1.42,1.42A1,1,0,0,1,38.26,35.29Z"/><path class="cls-9" d="M25,17A9,9,0,1,1,10.72,9.72,9,9,0,0,1,25,17Z"/><path class="cls-10" d="M23.67,21.69c-8,4.86-17.26-4.33-12.36-12.36C19.34,4.41,28.57,13.69,23.67,21.69Z"/><path class="cls-11" d="M16,16a1,1,0,1,1,1-1,1,1,0,0,0,1,1c1.66,0,1.21-3-1-3.82a1,1,0,1,0-2,0A3,3,0,0,0,16,18a1,1,0,1,1-1,1,1,1,0,0,0-1-1c-1.66,0-1.21,3,1,3.82a1,1,0,1,0,2,0A3,3,0,0,0,16,16Z"/></g></svg>