<?xml version="1.0" encoding="iso-8859-1"?>
<!-- Generator: Adobe Illustrator 19.0.0, SVG Export Plug-In . SVG Version: 6.00 Build 0)  -->
<svg xmlns="http://www.w3.org/2000/svg" xmlns:xlink="http://www.w3.org/1999/xlink" version="1.1" id="Layer_1" x="0px" y="0px" viewBox="0 0 511.999 511.999" style="enable-background:new 0 0 511.999 511.999;" xml:space="preserve">
<path style="fill:#66BB6A;" d="M486.576,110.618H25.423c-9.897,0-17.921,8.024-17.921,17.921V383.46  c0,9.897,8.024,17.921,17.921,17.921h461.152c9.897,0,17.921-8.024,17.921-17.921V128.539  C504.498,118.641,496.474,110.618,486.576,110.618z"/>
<g>
	<path style="fill:#ADE6B0;" d="M460.154,308.636V203.362c-30.247,0-54.767-24.52-54.767-54.767H106.613   c0,30.247-24.52,54.767-54.767,54.767v105.275c30.247,0,54.767,24.52,54.767,54.767h298.774   C405.387,333.157,429.907,308.636,460.154,308.636z"/>
	<circle style="fill:#ADE6B0;" cx="454.762" cy="153.977" r="16.791"/>
	<circle style="fill:#ADE6B0;" cx="57.234" cy="153.977" r="16.791"/>
	<circle style="fill:#ADE6B0;" cx="454.762" cy="358.018" r="16.791"/>
	<circle style="fill:#ADE6B0;" cx="57.234" cy="358.018" r="16.791"/>
</g>
<circle style="fill:#66BB6A;" cx="256.003" cy="256.003" r="79.38"/>
<path style="opacity:0.1;enable-background:new    ;" d="M83.521,383.46V128.539c0-9.898,8.024-17.921,17.921-17.921H25.423  c-9.898,0-17.921,8.024-17.921,17.921V383.46c0,9.897,8.024,17.921,17.921,17.921h76.019  C91.545,401.381,83.521,393.357,83.521,383.46z"/>
<path d="M486.577,103.116H160.265c-4.143,0-7.502,3.359-7.502,7.502c0,4.143,3.359,7.502,7.502,7.502h326.311  c5.745,0,10.42,4.674,10.42,10.42V383.46c0,5.745-4.674,10.42-10.42,10.42H25.423c-5.745,0-10.42-4.674-10.42-10.42V128.539  c0-5.745,4.674-10.42,10.42-10.42h104.834c4.143,0,7.502-3.359,7.502-7.502c0-4.143-3.359-7.502-7.502-7.502H25.423  C11.405,103.116,0,114.521,0,128.539V383.46c0,14.018,11.405,25.423,25.423,25.423h461.152c14.018,0,25.423-11.405,25.423-25.423  V128.539C512,114.521,500.595,103.116,486.577,103.116z"/>
<path d="M188.609,363.405c0,4.143,3.359,7.502,7.502,7.502h209.277c4.143,0,7.502-3.359,7.502-7.502  c0-26.062,21.203-47.266,47.266-47.266c4.143,0,7.502-3.359,7.502-7.502V203.362c0-4.143-3.359-7.502-7.502-7.502  c-26.062,0-47.266-21.203-47.266-47.266c0-4.143-3.359-7.502-7.502-7.502H352.4c-4.143,0-7.502,3.359-7.502,7.502  s3.359,7.502,7.502,7.502h45.935c3.419,28.353,25.965,50.9,54.318,54.318v91.17c-28.353,3.419-50.9,25.965-54.318,54.318H196.111  C191.967,355.903,188.609,359.262,188.609,363.405z"/>
<path d="M322.392,141.092H106.613c-4.143,0-7.502,3.359-7.502,7.502c0,26.062-21.203,47.266-47.266,47.266  c-4.143,0-7.502,3.359-7.502,7.502v105.276c0,4.143,3.359,7.502,7.502,7.502c26.062,0,47.266,21.203,47.266,47.266  c0,4.143,3.359,7.502,7.502,7.502h59.491c4.143,0,7.502-3.359,7.502-7.502c0-4.143-3.359-7.502-7.502-7.502h-52.438  c-3.419-28.353-25.965-50.9-54.318-54.318v-91.17c28.353-3.419,50.9-25.965,54.318-54.318h208.726c4.143,0,7.502-3.359,7.502-7.502  S326.535,141.092,322.392,141.092z"/>
<path d="M454.767,129.688c-13.395,0-24.294,10.898-24.294,24.293s10.899,24.294,24.294,24.294s24.293-10.899,24.293-24.294  S468.162,129.688,454.767,129.688z M454.767,163.271c-5.122,0-9.29-4.168-9.29-9.29c0-5.122,4.168-9.289,9.29-9.289  c5.122,0,9.289,4.167,9.289,9.289C464.056,159.103,459.889,163.271,454.767,163.271z"/>
<path d="M57.233,178.274c13.395,0,24.293-10.899,24.293-24.294s-10.898-24.293-24.293-24.293s-24.294,10.898-24.294,24.293  S43.838,178.274,57.233,178.274z M57.233,144.692c5.122,0,9.289,4.167,9.289,9.289c0,5.122-4.167,9.29-9.289,9.29  s-9.29-4.168-9.29-9.29C47.943,148.859,52.111,144.692,57.233,144.692z"/>
<path d="M454.767,333.724c-13.395,0-24.294,10.899-24.294,24.294s10.899,24.293,24.294,24.293s24.293-10.898,24.293-24.293  S468.162,333.724,454.767,333.724z M454.767,367.307c-5.122,0-9.29-4.167-9.29-9.289s4.168-9.29,9.29-9.29  c5.122,0,9.289,4.168,9.289,9.29S459.889,367.307,454.767,367.307z"/>
<path d="M57.233,382.311c13.395,0,24.293-10.898,24.293-24.293s-10.898-24.294-24.293-24.294s-24.294,10.899-24.294,24.294  S43.838,382.311,57.233,382.311z M57.233,348.727c5.122,0,9.289,4.168,9.289,9.29s-4.167,9.289-9.289,9.289s-9.29-4.167-9.29-9.289  S52.111,348.727,57.233,348.727z"/>
<circle cx="126.731" cy="256.003" r="16.791"/>
<circle cx="385.265" cy="256.003" r="16.791"/>
<path d="M326.386,218.53c-3.823,1.595-5.629,5.988-4.034,9.812c3.663,8.777,5.52,18.082,5.52,27.657  c0,39.632-32.242,71.874-71.873,71.874c-39.632,0-71.874-32.242-71.874-71.874c0-39.631,32.242-71.873,71.874-71.873  c19.265,0,37.359,7.524,50.952,21.187c2.922,2.938,7.672,2.95,10.609,0.027s2.95-7.672,0.027-10.609  c-16.429-16.514-38.301-25.609-61.588-25.609c-47.905,0-86.877,38.973-86.877,86.876c0,47.905,38.973,86.877,86.877,86.877  c47.904,0,86.876-38.973,86.876-86.877c0-11.568-2.247-22.818-6.678-33.435C334.603,218.74,330.21,216.933,326.386,218.53z"/>
<path d="M257.261,310.602c3.027,0,5.422-2.396,5.422-5.422v-7.566c16.015-1.513,26.861-10.719,26.861-24.591  c0-13.493-8.197-21.185-27.364-25.976v-24.212c4.288,1.009,8.574,2.901,12.988,5.548c1.261,0.757,2.522,1.135,3.783,1.135  c3.909,0,7.063-3.026,7.063-6.936c0-3.027-1.766-4.918-3.783-6.053c-5.801-3.657-12.106-6.053-19.547-6.936v-2.775  c0-3.026-2.396-5.422-5.422-5.422c-3.027,0-5.548,2.397-5.548,5.422v2.648c-15.764,1.261-26.483,10.593-26.483,24.086  c0,14.251,8.576,21.186,26.987,25.977v24.843c-6.936-1.261-12.736-4.162-18.664-8.45c-1.134-0.882-2.648-1.387-4.162-1.387  c-3.909,0-6.935,3.027-6.935,6.936c0,2.648,1.261,4.666,3.405,6.053c7.692,5.421,16.393,8.826,25.851,9.835v7.818  C251.712,308.206,254.234,310.602,257.261,310.602z M262.18,261.927c9.71,3.026,12.483,6.431,12.483,11.98  c0,6.052-4.412,10.087-12.483,10.97V261.927z M240.11,232.671c0-5.548,4.035-9.836,12.106-10.594v22.321  C242.507,241.246,240.11,237.966,240.11,232.671z"/>
<g>
</g>
<g>
</g>
<g>
</g>
<g>
</g>
<g>
</g>
<g>
</g>
<g>
</g>
<g>
</g>
<g>
</g>
<g>
</g>
<g>
</g>
<g>
</g>
<g>
</g>
<g>
</g>
<g>
</g>
</svg>
