<svg xmlns="http://www.w3.org/2000/svg" viewBox="0 0 48 48"><defs><style>.cls-1{fill:#9dcc6b;}.cls-2{fill:#b5e08c;}.cls-3{fill:#84b749;}.cls-4{fill:#fc6;}.cls-5{fill:#ffde76;}.cls-6{fill:#f8834b;}</style></defs><title>Money and Coin</title><g id="Money_and_Coin" data-name="Money and Coin"><rect class="cls-1" x="1" y="11" width="38" height="18"/><path class="cls-2" d="M39,11V26H7a3,3,0,0,1-3-3V11Z"/><path class="cls-3" d="M7,11a6,6,0,0,1-6,6V15a4,4,0,0,0,4-4Z"/><path class="cls-3" d="M24.35,11h-8.7a10,10,0,0,0,0,18h8.7A10,10,0,0,0,24.35,11ZM20,28a8,8,0,1,1,8-8A8,8,0,0,1,20,28Z"/><path class="cls-3" d="M20,17a1,1,0,0,1,1,1,1,1,0,0,0,1,1c1.66,0,1.21-3-1-3.82a1,1,0,1,0-2,0A3,3,0,0,0,20,21a1,1,0,1,1-1,1,1,1,0,0,0-1-1c-1.66,0-1.21,3,1,3.82a1,1,0,1,0,2,0A3,3,0,0,0,20,19,1,1,0,0,1,20,17Z"/><path class="cls-3" d="M6.71,19.29a1,1,0,1,0,0,1.42A1,1,0,0,0,6.71,19.29Z"/><path class="cls-3" d="M34.71,19.29a1,1,0,0,0-1.54,1.27A1,1,0,1,0,34.71,19.29Z"/><rect class="cls-1" x="3" y="7" width="34" height="4"/><path class="cls-2" d="M37,7V9H8A2,2,0,0,1,6,7Z"/><path class="cls-3" d="M39,15v2a6,6,0,0,1-6-6h2A4,4,0,0,0,39,15Z"/><path class="cls-3" d="M7,29H5a4,4,0,0,0-4-4V23A6,6,0,0,1,7,29Z"/><path class="cls-3" d="M39,23v2a4,4,0,0,0-4,4H33A6,6,0,0,1,39,23Z"/><path class="cls-4" d="M47,32a9,9,0,1,1-14.28-7.28A9,9,0,0,1,47,32Z"/><path class="cls-5" d="M45.67,36.69c-8,4.86-17.26-4.33-12.36-12.36C41.34,19.41,50.57,28.69,45.67,36.69Z"/><path class="cls-6" d="M38,31a1,1,0,1,1,1-1,1,1,0,0,0,1,1c1.66,0,1.21-3-1-3.82a1,1,0,1,0-2,0A3,3,0,0,0,38,33a1,1,0,1,1-1,1,1,1,0,0,0-1-1c-1.66,0-1.21,3,1,3.82a1,1,0,1,0,2,0A3,3,0,0,0,38,31Z"/></g></svg>