<?xml version="1.0" encoding="utf-8"?>
<!-- Generator: Adobe Illustrator 27.5.0, SVG Export Plug-In . SVG Version: 6.00 Build 0)  -->
<svg version="1.1" id="Layer_1" xmlns="http://www.w3.org/2000/svg" xmlns:xlink="http://www.w3.org/1999/xlink" x="0px" y="0px"
	 viewBox="0 0 187.037 188.571" style="enable-background:new 0 0 187.037 188.571;" xml:space="preserve">
<g>
	<g>
		<g>
			<path style="fill:#FFFFFF;" d="M95.541,8.361c-48.905,0-88.69,39.787-88.69,88.692c0,48.903,39.785,88.69,88.69,88.69
				c48.903,0,88.69-39.786,88.69-88.69C184.231,48.148,144.444,8.361,95.541,8.361z"/>
			<path style="fill:#F1F1F1;" d="M95.174,7.857c-48.905,0-88.69,39.787-88.69,88.691s39.785,88.689,88.69,88.689
				c48.903,0,88.69-39.785,88.69-88.689S144.077,7.857,95.174,7.857z"/>
			<path style="fill:#E2E2E2;" d="M94.806,7.355C45.9,7.355,6.114,47.142,6.114,96.047c0,48.902,39.786,88.689,88.691,88.689
				c48.904,0,88.691-39.787,88.691-88.689C183.497,47.142,143.71,7.355,94.806,7.355z"/>
			<path style="fill:#D4D4D4;" d="M94.438,6.852c-48.904,0-88.69,39.787-88.69,88.691c0,48.904,39.786,88.689,88.69,88.689
				c48.904,0,88.69-39.785,88.69-88.689C183.128,46.638,143.342,6.852,94.438,6.852z"/>
			<path style="fill:#C5C5C5;" d="M94.07,6.349c-48.904,0-88.69,39.787-88.69,88.692c0,48.902,39.786,88.689,88.69,88.689
				s88.691-39.787,88.691-88.689C182.762,46.136,142.975,6.349,94.07,6.349z"/>
			<path style="fill:#B7B7B7;" d="M93.703,5.846c-48.905,0-88.691,39.787-88.691,88.691s39.786,88.689,88.691,88.689
				c48.904,0,88.69-39.785,88.69-88.689S142.607,5.846,93.703,5.846z"/>
			
				<ellipse transform="matrix(0.9999 -0.013 0.013 0.9999 -1.2112 1.2179)" style="fill:#A8A8A8;" cx="93.335" cy="94.034" rx="88.69" ry="88.691"/>
			<path style="fill:#9A9A9A;" d="M92.968,4.84c-48.905,0-88.691,39.787-88.691,88.692c0,48.904,39.786,88.689,88.691,88.689
				c48.904,0,88.69-39.785,88.69-88.689C181.657,44.627,141.872,4.84,92.968,4.84z"/>
			<path style="fill:#8B8B8B;" d="M92.599,4.337c-48.903,0-88.69,39.787-88.69,88.691c0,48.903,39.787,88.69,88.69,88.69
				c48.905,0,88.69-39.786,88.69-88.69C181.289,44.124,141.504,4.337,92.599,4.337z"/>
			<path style="fill:#7D7D7D;" d="M92.231,3.834c-48.903,0-88.69,39.787-88.69,88.691c0,48.903,39.787,88.689,88.69,88.689
				c48.905,0,88.69-39.786,88.69-88.689C180.922,43.621,141.137,3.834,92.231,3.834z"/>
			<path style="fill:#6E6E6E;" d="M91.864,3.331c-48.904,0-88.691,39.787-88.691,88.692c0,48.903,39.787,88.689,88.691,88.689
				c48.905,0,88.69-39.786,88.69-88.689C180.555,43.118,140.77,3.331,91.864,3.331z"/>
			<path style="fill:#606060;" d="M91.496,2.828c-48.903,0-88.69,39.787-88.69,88.692c0,48.903,39.787,88.689,88.69,88.689
				c48.905,0,88.691-39.786,88.691-88.689C180.187,42.615,140.401,2.828,91.496,2.828z"/>
		</g>
		<path style="fill:#FFFFFF;" d="M91.496,2.828c-48.903,0-88.69,39.787-88.69,88.692c0,48.903,39.787,88.689,88.69,88.689
			c48.905,0,88.691-39.786,88.691-88.689C180.187,42.615,140.401,2.828,91.496,2.828z"/>
	</g>
	<g>
		<g>
			<g>
				<radialGradient id="SVGID_1_" cx="-5.8923" cy="-26.1657" r="255.6673" gradientUnits="userSpaceOnUse">
					<stop  offset="0" style="stop-color:#E3F3FC"/>
					<stop  offset="0.2199" style="stop-color:#AEB7BD"/>
					<stop  offset="0.6059" style="stop-color:#8CA4AF"/>
					<stop  offset="1" style="stop-color:#393B3D"/>
				</radialGradient>
				<path style="fill:url(#SVGID_1_);" d="M175.337,91.52c0,46.303-37.536,83.84-83.841,83.84c-46.304,0-83.841-37.537-83.841-83.84
					c0-46.305,37.537-83.842,83.841-83.842C137.801,7.678,175.337,45.215,175.337,91.52z"/>
			</g>
			<path style="opacity:0.5;fill:#8CA4AF;" d="M136.989,141.414c-0.337-6.136-8.07-4.436-11.719-2.756
				c-4.655,2.14-10.097,7.303-7.338,12.766c0.228,1.602,0.883,3.143,2.287,3.97c2.864,1.688,6.198,0.465,8.885-1.003
				C133.456,152.014,137.272,146.512,136.989,141.414z"/>
			<path style="opacity:0.5;fill:#8CA4AF;" d="M146.711,135.37c-0.027-0.086-0.08-0.153-0.131-0.221
				c-0.004-0.179-0.048-0.352-0.177-0.45c-0.295-0.23-0.498-0.352-0.879-0.396c-0.494-0.059-1.016,0.157-1.432,0.393
				c-0.815,0.463-1.478,1.285-1.732,2.187c-0.087,0.264-0.095,0.526-0.023,0.793c0.131,0.418,0.447,0.526,0.828,0.622
				c1.264,0.318,2.854-0.691,3.36-1.832C146.681,136.117,146.834,135.758,146.711,135.37z"/>
			<path style="opacity:0.5;fill:#8CA4AF;" d="M143.807,108.539c-1.52-1.897-4.066-1.979-6.227-1.225
				c-0.282,0.1-0.572,0.221-0.864,0.362c-1.796,0.483-3.108,1.7-4.033,3.214c-2.11,2.482-3.325,5.732-1.652,8.441
				c0.273,1.521,0.951,2.896,2.295,3.701c4.088,2.449,9.635-3.917,10.806-7.127C144.913,113.76,145.373,110.494,143.807,108.539z"/>
			<path style="opacity:0.5;fill:#8CA4AF;" d="M152.701,119.047c0-0.024,0.002-0.049-0.002-0.074c0-0.051-0.01-0.1-0.024-0.146
				c0.018-0.196-0.016-0.394-0.143-0.546c-0.081-0.095-0.172-0.168-0.282-0.231c-0.492-0.287-1.275,0.236-1.548,0.619
				c-0.103,0.146-0.2,0.289-0.28,0.447c-0.155,0.313-0.286,0.74-0.02,1.04c0.174,0.2,0.409,0.239,0.649,0.204
				c0.256,0.07,0.559-0.017,0.836-0.193c0.004-0.002,0.007-0.004,0.013-0.006c0.021-0.014,0.048-0.033,0.072-0.051
				c0.022-0.017,0.046-0.03,0.068-0.047c0.028-0.023,0.061-0.051,0.091-0.078c0.032-0.029,0.064-0.057,0.097-0.087
				c0.231-0.225,0.449-0.528,0.472-0.816C152.699,119.07,152.701,119.059,152.701,119.047z"/>
			<path style="opacity:0.5;fill:#8CA4AF;" d="M102.521,145.482c-3.323-5.1-13.777-2.303-16.952,1.52
				c-0.332,0.398-0.651,0.859-0.933,1.35c-0.397,0.45-0.727,0.954-0.96,1.523c-1.606,3.902,4.805,7.393,8.07,7.021
				C95.704,156.445,105.985,150.805,102.521,145.482z"/>
			<path style="opacity:0.5;fill:#8CA4AF;" d="M109.195,156.715c-0.161-0.199-0.506-0.262-0.741-0.199
				c-0.017,0.004-0.032,0.009-0.049,0.013c-0.139,0.036-0.298,0.101-0.461,0.188c-0.149,0.001-0.305,0.038-0.42,0.082
				c-0.374,0.146-0.683,0.432-0.881,0.775c-0.228,0.396-0.469,0.824-0.338,1.295c0.155,0.567,0.737,0.635,1.231,0.555
				C108.587,159.252,110.064,157.797,109.195,156.715z"/>
			<path style="opacity:0.5;fill:#8CA4AF;" d="M112.886,164.166l-0.093-0.151c-0.203-0.335-0.599-0.081-0.877,0.204
				c-0.004,0.004-0.008,0.008-0.012,0.012c-0.135,0.141-0.24,0.287-0.276,0.373c-0.02,0.049-0.04,0.099-0.059,0.148
				c-0.038,0.077-0.062,0.147-0.072,0.21c-0.117,0.44,0.282,0.502,0.712,0.362c0.235-0.059,0.466-0.184,0.62-0.359
				C113.077,164.73,113.178,164.436,112.886,164.166z"/>
			<path style="opacity:0.5;fill:#8CA4AF;" d="M42.081,134.652c0.76-3.834-3.023-9.682-7.163-6.402
				c-1.661,1.315-1.896,2.963-1.328,4.488c0.233,1.346,0.811,2.719,1.228,3.51c0.699,1.331,1.83,2.403,3.45,2.275
				c1.393-0.112,2.518-1.072,3.198-2.267c0.163-0.217,0.276-0.457,0.339-0.709C41.922,135.252,42.021,134.953,42.081,134.652z"/>
			<path style="opacity:0.5;fill:#8CA4AF;" d="M45.862,143.436c0.002-0.007,0.004-0.02,0.006-0.055
				c0.002-0.125,0.052-0.268-0.011-0.387c-0.086-0.164-0.185-0.313-0.279-0.469c-0.134-0.225-0.532-0.15-0.718-0.077
				c-0.399,0.155-0.678,0.476-0.835,0.864c-0.197,0.489-0.347,1.27,0.282,1.535C44.973,145.129,46.172,144.154,45.862,143.436z"/>
			<path style="opacity:0.5;fill:#8CA4AF;" d="M161.009,74.477c-4.704,0.314-8.7,11.037-4.99,14.047
				c1.309,1.94,3.487,3.174,5.809,1.948C166.414,88.047,168.16,73.996,161.009,74.477z"/>
			<path style="opacity:0.5;fill:#8CA4AF;" d="M118.277,55.575c-0.077-0.156-0.228-0.269-0.468-0.328
				c-0.059-0.014-0.115-0.008-0.173-0.014c0.03-0.07,0.061-0.136,0.09-0.205c0.075-0.179-0.032-0.378-0.226-0.397
				c-0.292-0.027-0.558,0.206-0.697,0.436c-0.08,0.132-0.167,0.265-0.254,0.397c-0.141,0.075-0.275,0.16-0.407,0.253
				c-0.564,0.395-1.389,1.265-0.856,1.996c0.002,0.004,0.004,0.004,0.006,0.006c-0.028,0.097-0.058,0.192-0.074,0.293
				c-0.099,0.547,0.294,0.825,0.815,0.613c0.468-0.192,0.909-0.484,1.283-0.842C118.048,57.406,119.1,56.26,118.277,55.575z"/>
			<path style="opacity:0.5;fill:#8CA4AF;" d="M40.863,95.004c-0.847-1.67-2.64-1.605-4.111-0.808
				c-2.353,1.274-4.763,5.606-2.556,7.508c0.278,0.887,0.832,1.647,1.749,1.778c1.895,0.27,3.465-1.527,4.391-2.932
				C41.375,98.98,41.734,96.721,40.863,95.004z"/>
			<path style="opacity:0.5;fill:#8CA4AF;" d="M26.07,74.736c-0.771-0.578-1.675-0.572-2.52-0.251
				c0.112-0.251-0.004-0.505-0.391-0.302c-2.131,1.111-3.505,4.156-2.552,6.461c0.459,1.113,1.582,1.397,2.662,1.061
				c1.627-0.506,2.567-1.755,3.166-3.271C26.866,77.344,27.156,75.555,26.07,74.736z"/>
			<path style="opacity:0.4;fill:#B9E5FB;" d="M149.683,131.381c-4.709,4.33-10.136,6.947-15.447,10.162
				c0.059-0.273,0.085-0.546,0.047-0.813c-0.017-0.053-0.047-0.096-0.077-0.137c1.506-1.308,2.86-3.323,3.9-4.47
				c3.202-3.531,6.449-7.489,8.372-11.89c0.105-0.237-0.218-0.188-0.29-0.027c-1.514,3.313-3.821,6.116-6.095,8.932
				c-1.022,1.266-2.099,2.475-3.199,3.674c-0.451,0.491-2.037,2.398-3.309,3.523c-0.009-0.001-0.018,0-0.028-0.001
				c1.663-2.964,2.855-6.337,3.682-9.552c0.045-0.175-0.211-0.07-0.243,0.04c-0.943,3.281-2.383,6.32-3.933,9.321
				c0.722-2.339,1.32-4.732,1.796-7.121c0.032-0.162-0.199-0.068-0.222,0.036c-0.554,2.351-1.338,4.626-2.042,6.927
				c-0.633-4.452-0.722-9.111-0.758-13.574c-0.002-0.142-0.233-0.014-0.233,0.092c0.014,4.596,0.076,9.385,0.724,13.963
				c-0.028,0.012-0.053,0.031-0.081,0.043c-0.028-0.012-0.056-0.029-0.084-0.041c-0.099-0.038-0.289,0.105-0.265,0.217
				c-0.197,0.118-0.385,0.254-0.552,0.42c-2.506-3.801-4.488-7.668-5.831-12.083c-0.036-0.12-0.256,0.034-0.228,0.14
				c1.279,4.492,3.156,8.428,5.764,12.217c-0.023,0.016-0.038,0.037-0.059,0.053c-1.525-1.929-3.821-3.256-5.469-5.074
				c-0.093-0.102-0.332,0.109-0.241,0.212c1.628,1.853,3.587,3.454,5.373,5.167c-0.012,0.011-0.022,0.019-0.032,0.029
				c-4.906-0.955-9.98-1.582-14.902-2.121c-0.104-0.011-0.264,0.199-0.119,0.219c4.91,0.685,9.777,1.663,14.673,2.463
				c-0.053,0.133-0.085,0.272-0.109,0.412c-1.067,0.098-2.211,0.033-3.192,0.221c-1.434,0.275-2.846,0.595-4.299,0.758
				c-0.117,0.014-0.25,0.252-0.072,0.236c1.804-0.143,3.598-0.684,5.403-0.715c0.682-0.012,1.411,0.014,2.12-0.055
				c-0.002,0.179,0.01,0.357,0.047,0.523c-1.766,0.827-3.658,1.462-5.422,2.111c-3.791,1.397-7.478,3.699-11.438,4.53
				c-0.064,0.015-0.146,0.156-0.041,0.139c3.965-0.659,7.733-2.804,11.466-4.249c1.663-0.643,3.48-1.196,5.176-1.942
				c-1.067,0.708-2.238,1.322-3.236,2.041c-1.489,1.072-3.364,2.794-5.089,3.464c-0.103,0.04-0.159,0.239-0.006,0.183
				c1.846-0.676,3.583-2.236,5.178-3.381c1.009-0.724,2.191-1.295,3.265-1.98c-1.828,1.627-3.846,3.099-5.708,4.584
				c-3.247,2.589-6.311,5.34-10.001,7.307c-0.139,0.074-0.116,0.274,0.059,0.186c3.768-1.906,6.915-4.585,10.181-7.221
				c2.033-1.643,4.456-3.221,6.441-5.09c0.012,0,0.018,0.002,0.026,0.002c0.114,0,0.23-0.027,0.344-0.049
				c-1.274,2.068-2.664,4.143-4.021,6.072c-1.561,2.217-3.194,5.195-5.174,7.033c-0.155,0.143-0.02,0.301,0.142,0.162
				c2.168-1.861,3.744-4.72,5.419-7.017c1.216-1.668,2.529-3.456,3.666-5.286c-0.588,3.354-1.281,6.756-2.619,9.848
				c-0.031,0.074,0.066,0.059,0.092,0.008c1.583-3.324,2.775-7.316,3.304-11.074c0.028-0.014,0.055-0.035,0.085-0.049
				c0.48,1.643,1.249,3.311,1.739,4.807c0.523,1.592,2.058,5.961,3.275,6.463c-0.107-0.044-0.307,0.162-0.182,0.227
				c0.057,0.027,0.114,0.057,0.171,0.086c0.099,0.05,0.295-0.125,0.212-0.222c-1.453-1.71-2.133-4.775-3.031-6.827
				c-0.615-1.41-1.25-3.166-1.697-4.848c0.097-0.07,0.178-0.16,0.267-0.239c2.107,3.239,4.515,6.271,6.396,9.655
				c0.079,0.143,0.351-0.058,0.288-0.177c-1.826-3.462-4.17-6.597-6.28-9.882c0.061-0.072,0.115-0.15,0.174-0.225
				c0.481,0.217,0.972,0.403,1.469,0.58c1.807,1.404,3.707,2.702,5.557,4.039c0.115,0.083,0.388-0.189,0.268-0.281
				c-1.339-1.041-2.658-2.211-4.061-3.189c0.401,0.117,0.801,0.229,1.205,0.338c1.707,0.465,2.957,1.629,4.789,1.77
				c0.161,0.012,0.401-0.321,0.184-0.34c-1.997-0.167-3.52-1.457-5.403-1.984c-0.699-0.197-1.373-0.43-2.038-0.68
				c-0.181-0.146-0.356-0.299-0.53-0.457c0.394,0.077,0.786,0.141,1.149,0.198c2.245,0.355,4.585,0.562,6.841,0.687
				c0.148,0.007,0.383-0.301,0.175-0.32c-1.889-0.176-3.829-0.488-5.72-0.754c-0.526-0.073-1.028-0.176-1.521-0.289
				c4.589-0.957,9.064-1.999,13.533-3.711c0.172-0.066,0.268-0.406,0.009-0.31c-4.755,1.782-9.542,2.782-14.434,3.794
				c-0.131-0.037-0.26-0.082-0.391-0.121c5.317-3.08,10.592-5.998,15.154-10.281C149.979,131.398,149.839,131.237,149.683,131.381z"
				/>
			<path style="opacity:0.4;fill:#B9E5FB;" d="M68.548,72.559c-2.233,5.992-2.61,12.008-3.584,18.141
				c0.23-0.158,0.474-0.284,0.734-0.351c0.057-0.004,0.106,0.007,0.155,0.019c0.643-1.886,1.999-3.902,2.668-5.298
				c2.063-4.296,4.503-8.798,7.853-12.239c0.18-0.186,0.256,0.131,0.135,0.26c-2.497,2.652-4.223,5.846-5.972,9.014
				c-0.786,1.425-1.499,2.878-2.195,4.35c-0.284,0.602-1.453,2.791-2.015,4.392c0.004,0.009,0.006,0.017,0.012,0.026
				c2.116-2.658,4.789-5.034,7.457-7.014c0.144-0.106,0.146,0.169,0.055,0.241c-2.685,2.111-4.956,4.591-7.149,7.159
				c1.895-1.553,3.885-3.01,5.918-4.351c0.139-0.091,0.139,0.159,0.05,0.221c-1.969,1.398-3.78,2.984-5.645,4.505
				c4.361-1.096,8.711-2.771,12.856-4.419c0.133-0.053,0.101,0.209,0.002,0.25c-4.259,1.721-8.719,3.471-13.203,4.596
				c0,0.031-0.01,0.062-0.008,0.093c0.021,0.022,0.048,0.038,0.068,0.061c0.072,0.077,0.012,0.31-0.101,0.329
				c-0.035,0.227-0.089,0.451-0.182,0.668c4.468,0.888,8.795,1.265,13.391,0.844c0.125-0.014,0.064,0.25-0.044,0.262
				c-4.643,0.51-8.995,0.256-13.486-0.729c-0.006,0.025-0.021,0.05-0.027,0.075c2.361,0.685,4.456,2.309,6.762,3.15
				c0.129,0.048,0.023,0.349-0.103,0.304c-2.333-0.809-4.553-2.019-6.814-3.025c-0.005,0.012-0.007,0.027-0.015,0.038
				c2.733,4.185,5.23,8.646,7.586,13.003c0.049,0.09-0.086,0.318-0.159,0.193c-2.484-4.291-5.228-8.431-7.815-12.661
				c-0.104,0.099-0.22,0.181-0.341,0.256c0.313,1.026,0.805,2.062,1,3.041c0.286,1.431,0.523,2.86,0.921,4.267
				c0.032,0.113-0.138,0.326-0.191,0.156c-0.549-1.723-0.724-3.592-1.377-5.274c-0.246-0.636-0.544-1.302-0.75-1.983
				c-0.163,0.068-0.334,0.127-0.501,0.152c-0.1,1.947,0.027,3.939,0.092,5.818c0.136,4.039-0.604,8.321,0.117,12.303
				c0.013,0.065-0.087,0.193-0.112,0.092c-0.887-3.923-0.321-8.221-0.392-12.224c-0.03-1.782-0.203-3.673-0.151-5.525
				c-0.252,1.255-0.381,2.571-0.669,3.768c-0.433,1.782-1.32,4.168-1.288,6.019c0,0.108-0.161,0.238-0.167,0.074
				c-0.072-1.965,0.718-4.162,1.177-6.071c0.289-1.206,0.373-2.517,0.601-3.769c-0.816,2.305-1.419,4.728-2.089,7.014
				c-1.175,3.986-2.565,7.859-2.995,12.02c-0.017,0.156-0.211,0.21-0.195,0.015c0.345-4.208,1.639-8.132,2.849-12.152
				c0.753-2.503,1.3-5.343,2.281-7.886c-0.004-0.01-0.009-0.015-0.013-0.023c-0.042-0.105-0.059-0.223-0.084-0.337
				c-1.434,1.96-2.83,4.03-4.105,6.015c-1.464,2.281-3.607,4.918-4.562,7.445c-0.074,0.197-0.271,0.13-0.205-0.071
				c0.908-2.708,2.96-5.247,4.454-7.665c1.088-1.754,2.247-3.645,3.513-5.389c-2.884,1.809-5.771,3.734-8.132,6.141
				c-0.057,0.059-0.079-0.039-0.041-0.082c2.481-2.722,5.729-5.33,9.009-7.239c0.003-0.031,0.011-0.063,0.015-0.095
				c-1.703,0.174-3.537,0.091-5.107,0.201c-1.673,0.115-6.298,0.343-7.223-0.594c0.082,0.081-0.033,0.344-0.14,0.252
				c-0.05-0.041-0.097-0.084-0.144-0.125c-0.085-0.072,0.004-0.32,0.124-0.281c2.133,0.701,5.228,0.176,7.468,0.233
				c1.536,0.039,3.402-0.036,5.129-0.257c0.03-0.114,0.081-0.225,0.121-0.337c-3.795-0.729-7.512-1.816-11.356-2.28
				c-0.162-0.021-0.077-0.347,0.058-0.333c3.892,0.385,7.682,1.371,11.518,2.088c0.043-0.085,0.097-0.164,0.144-0.247
				c-0.383-0.362-0.74-0.748-1.093-1.142c-1.981-1.143-3.901-2.414-5.835-3.621c-0.12-0.076,0.028-0.432,0.159-0.355
				c1.468,0.848,3.05,1.628,4.484,2.559c-0.258-0.326-0.514-0.657-0.766-0.988c-1.074-1.405-2.624-2.124-3.446-3.768
				c-0.072-0.145,0.146-0.494,0.244-0.299c0.91,1.786,2.678,2.709,3.878,4.254c0.445,0.572,0.916,1.109,1.396,1.632
				c0.205,0.112,0.411,0.218,0.624,0.32c-0.221-0.337-0.427-0.677-0.616-0.99c-1.177-1.945-2.251-4.034-3.217-6.077
				c-0.063-0.135,0.135-0.467,0.232-0.281c0.875,1.682,1.896,3.361,2.854,5.012c0.268,0.459,0.552,0.886,0.843,1.299
				c-0.845-4.611-1.568-9.149-1.669-13.933c-0.004-0.184,0.275-0.401,0.282-0.125c0.146,5.077,1.024,9.888,1.933,14.8
				c0.085,0.106,0.175,0.211,0.26,0.314c0.845-6.086,1.558-12.072,3.804-17.914C68.419,72.291,68.622,72.359,68.548,72.559z"/>
			<path style="opacity:0.5;fill:#FFFFFF;" d="M65.236,91.17c-0.358-0.063-0.709,0.098-0.989,0.355
				c-0.101,0.064-0.198,0.143-0.29,0.238c-0.413,0.432-0.593,1.107-0.604,1.689c-0.012,0.537,0.246,1.143,0.881,1.051
				c0.833-0.12,1.409-0.988,1.639-1.732C66.079,92.104,66.049,91.313,65.236,91.17z"/>
			<path style="opacity:0.5;fill:#FFFFFF;" d="M134.405,140.699c-0.151,0.005-0.303,0.029-0.452,0.063
				c-0.353-0.025-0.906,0.244-1.162,0.417c-0.704,0.48-1.428,1.146-1.307,2.06c0.103,0.768,1.22,0.627,1.697,0.422
				c1.004-0.436,1.652-1.455,1.586-2.551C134.756,140.912,134.643,140.691,134.405,140.699z"/>
			<path style="opacity:0.5;fill:#FFFFFF;" d="M166.225,106.777c-0.058-0.531-0.29-1.174-0.844-1.363
				c-0.574-0.197-1.133,0.096-1.574,0.445c-0.758,0.596-1.29,1.789-1.241,2.737c0.016,0.288,0.068,0.651,0.239,0.919
				c0.017,0.092,0.042,0.179,0.075,0.253c0.453,0.993,1.64,0.329,2.174-0.204C165.838,108.782,166.346,107.898,166.225,106.777z"/>
			<path style="opacity:0.5;fill:#FFFFFF;" d="M166.618,112.234c-0.017-0.051-0.047-0.086-0.085-0.109
				c0-0.002-0.002-0.01-0.002-0.014c0-0.037-0.004-0.076-0.02-0.114c-0.003-0.011-0.015-0.013-0.02-0.021
				c-0.012-0.031-0.023-0.06-0.026-0.08c-0.08-0.314-0.538-0.102-0.677,0.025c-0.286,0.26-0.581,0.539-0.67,0.93
				c-0.118,0.516,0.486,0.459,0.748,0.2c0.049-0.048,0.081-0.085,0.125-0.13c0.145,0.002,0.299-0.084,0.397-0.174
				c0.006-0.004,0.01-0.009,0.016-0.014C166.533,112.617,166.677,112.422,166.618,112.234z"/>
			<path style="opacity:0.5;fill:#FFFFFF;" d="M59.861,154.691c-0.331-0.158-0.684-0.063-0.976,0.146
				c-0.646-0.121-1.224,0.484-1.377,1.066c-0.324,1.234,1.151,2.548,2.332,2.209c0.68-0.192,1.104-0.896,1.05-1.581
				C60.835,155.879,60.486,154.99,59.861,154.691z"/>
			<path style="opacity:0.5;fill:#FFFFFF;" d="M64.281,159.279c-0.077-0.219-0.322-0.298-0.528-0.318
				c-0.326-0.034-0.931,0.529-0.534,0.794c0.065,0.042,0.269,0.122,0.267,0.11c0.131,0.102,0.411,0.073,0.568-0.081
				c0.006-0.004,0.012-0.01,0.018-0.013C64.188,159.655,64.346,159.462,64.281,159.279z"/>
			<path style="opacity:0.5;fill:#FFFFFF;" d="M131.46,77.94c-0.455-0.808-1.187-0.685-1.854-0.247
				c-0.182,0.081-0.352,0.199-0.482,0.35c-0.029,0.031-0.046,0.068-0.072,0.1c-0.421,0.399-0.762,0.861-0.905,1.184
				c-0.356,0.795-0.726,2.433,0.128,3.051c0.021,0.025,0.032,0.057,0.056,0.08c0.462,0.46,1.22,0.129,1.661-0.169
				C131.354,81.378,132.311,79.451,131.46,77.94z"/>
			<path style="opacity:0.5;fill:#FFFFFF;" d="M131.484,85.063c-0.153-0.318-0.508-0.109-0.707,0.123
				c-0.006,0.002-0.011,0.004-0.017,0.008c-0.179,0.102-0.479,0.455-0.286,0.668C130.895,86.32,131.727,85.571,131.484,85.063z"/>
			<path style="opacity:0.5;fill:#FFFFFF;" d="M23.71,89.949c-0.016-0.011-0.028-0.016-0.044-0.025
				c-0.021-0.033-0.041-0.07-0.063-0.105c-0.03-0.047-0.049-0.084-0.069-0.125c-0.066-0.625-0.383-1.105-1.116-1.109
				c-0.337-0.001-0.643,0.109-0.909,0.282c-0.691,0.206-1.12,1.232-1.165,1.972c-0.034,0.577,0.081,1.244,0.464,1.697
				c0.367,0.435,0.976,0.385,1.447,0.146c0.002,0.007,0.006,0.016,0.006,0.023c0.03,0.246,0.405,0.021,0.396-0.155
				c0-0.051-0.002-0.099-0.004-0.147c0.268-0.264,0.521-0.729,0.69-1.246c0.226-0.02,0.543-0.331,0.549-0.52
				c0.002-0.078-0.004-0.15-0.017-0.221C23.928,90.247,23.896,90.08,23.71,89.949z"/>
			<path style="opacity:0.5;fill:#FFFFFF;" d="M23.111,95.072c-0.25-0.185-0.675,0.275-0.587,0.547c-0.02,0.059-0.025,0.115,0,0.172
				l0.047,0.114c0.006,0.086,0.028,0.189,0.125,0.222c0.089,0.03,0.165,0.052,0.262,0.029c0.236-0.055,0.566-0.289,0.551-0.57
				C23.496,95.348,23.287,95.204,23.111,95.072z"/>
			<path style="opacity:0.5;fill:#FFFFFF;" d="M141.469,37.768c-0.304-0.489-1.15,0.13-1.356,0.388
				c-0.256,0.314-0.393,0.825-0.029,1.026c0.034,0.131,0.076,0.255,0.152,0.384c0.202,0.336,0.797-0.127,0.911-0.455
				c0.04-0.027,0.083-0.048,0.119-0.08c0.188-0.166,0.28-0.366,0.371-0.589C141.741,38.184,141.598,37.975,141.469,37.768z"/>
		</g>
		<path style="opacity:0.5;fill:#8CA4AF;" d="M91.496,7.678c-46.304,0-83.841,37.537-83.841,83.842
			c0,46.303,37.537,83.84,83.841,83.84c46.305,0,83.841-37.537,83.841-83.84C175.337,45.215,137.801,7.678,91.496,7.678z
			 M85.233,152.679c-38.321,0-69.384-31.065-69.384-69.384c0-38.319,31.063-69.384,69.384-69.384
			c38.32,0,69.383,31.065,69.383,69.384C154.616,121.613,123.554,152.679,85.233,152.679z"/>
		<path style="opacity:0.7;fill:#C3E8FA;" d="M27.308,135.837c-11.339-17.915-15.233-33.564-15.997-45.579
			c-0.006-0.038-0.014-0.077-0.018-0.115c-0.464-3.832-0.649-7.658-0.536-11.467c-2.188,12.533-2.294,32.33,10.327,54.121
			c21.325,36.816,61.082,42.608,81.09,39.186C102.174,171.982,53.634,177.436,27.308,135.837z"/>
	</g>
</g>
</svg>
